<svg width="33" height="32" viewBox="0 0 33 32" fill="none" xmlns="http://www.w3.org/2000/svg">
<path fill-rule="evenodd" clip-rule="evenodd" d="M30.4219 21.271L21.0814 5.30357C20.1437 3.67795 18.3959 2.66896 16.5058 2.66675C14.6154 2.66454 12.867 3.66936 11.9177 5.30364L2.57374 21.2769C1.60484 22.9061 1.58292 24.9475 2.52141 26.6123C3.46067 28.2786 5.21938 29.3156 7.13237 29.3311L25.8495 29.3312C27.7824 29.3124 29.5378 28.2786 30.4769 26.6139C31.4149 24.951 31.3939 22.9142 30.4219 21.271ZM4.87061 22.6317L14.2215 6.64662C14.695 5.83147 15.5635 5.33232 16.5027 5.33342C17.4417 5.33452 18.3099 5.83573 18.7756 6.64305L28.1234 22.6231C28.6134 23.4514 28.6239 24.4711 28.1543 25.3036C27.684 26.1374 26.8047 26.6552 25.8365 26.6646L7.14321 26.6645C6.19574 26.6567 5.31481 26.1373 4.84442 25.3029C4.37455 24.4693 4.38552 23.4473 4.87061 22.6317ZM16.5003 23.9979C17.2369 23.9979 17.8341 23.4009 17.8341 22.6645C17.8341 21.9282 17.2369 21.3312 16.5003 21.3312C15.7637 21.3312 15.1665 21.9282 15.1665 22.6645C15.1665 23.4009 15.7637 23.9979 16.5003 23.9979ZM17.838 10.6645H15.1704V19.9979H17.838V10.6645Z" fill="#B8B500"/>
</svg>
