<svg width="18" height="16" viewBox="0 0 18 16" fill="none" xmlns="http://www.w3.org/2000/svg">
<path fill-rule="evenodd" clip-rule="evenodd" d="M9.83268 7.16667C8.27948 7.16667 6.9744 6.10436 6.60436 4.66667H0.666016V3H6.60436C6.9744 1.56231 8.27948 0.5 9.83268 0.5C11.6736 0.5 13.166 1.99238 13.166 3.83333C13.166 5.67428 11.6736 7.16667 9.83268 7.16667ZM14.8327 3H17.3327V4.66667H14.8327V3ZM5.66602 15.5C4.11282 15.5 2.80773 14.4377 2.4377 13H0.666016V11.3333H2.4377C2.80773 9.89564 4.11282 8.83333 5.66602 8.83333C7.50696 8.83333 8.99935 10.3257 8.99935 12.1667C8.99935 14.0076 7.50696 15.5 5.66602 15.5ZM10.666 13H17.3327V11.3333H10.666V13ZM7.33268 12.1667C7.33268 13.0871 6.58649 13.8333 5.66602 13.8333C4.74554 13.8333 3.99935 13.0871 3.99935 12.1667C3.99935 11.2462 4.74554 10.5 5.66602 10.5C6.58649 10.5 7.33268 11.2462 7.33268 12.1667ZM11.4993 3.83333C11.4993 4.75381 10.7532 5.5 9.83268 5.5C8.91221 5.5 8.16602 4.75381 8.16602 3.83333C8.16602 2.91286 8.91221 2.16667 9.83268 2.16667C10.7532 2.16667 11.4993 2.91286 11.4993 3.83333Z" fill="#FAFAFA"/>
</svg>
